<?xml version="1.0" encoding="UTF-8" standalone="no"?>
<!-- Created with Inkscape (http://www.inkscape.org/) -->

<svg
   xmlns:dc="http://purl.org/dc/elements/1.1/"
   xmlns:cc="http://creativecommons.org/ns#"
   xmlns:rdf="http://www.w3.org/1999/02/22-rdf-syntax-ns#"
   xmlns:svg="http://www.w3.org/2000/svg"
   xmlns="http://www.w3.org/2000/svg"
   xmlns:sodipodi="http://sodipodi.sourceforge.net/DTD/sodipodi-0.dtd"
   xmlns:inkscape="http://www.inkscape.org/namespaces/inkscape"
   width="4.53333mm"
   height="4.53333mm"
   viewBox="0 0 4.53333 4.53333"
   version="1.1"
   id="svg1437"
   inkscape:version="0.92.3 (2405546, 2018-03-11)"
   sodipodi:docname="icon.svg">
  <defs
     id="defs1431" />
  <sodipodi:namedview
     id="base"
     pagecolor="#ffffff"
     bordercolor="#666666"
     borderopacity="1.0"
     inkscape:pageopacity="0.0"
     inkscape:pageshadow="2"
     inkscape:zoom="44.8"
     inkscape:cx="13.039609"
     inkscape:cy="13.063124"
     inkscape:document-units="mm"
     inkscape:current-layer="layer1"
     showgrid="false"
     fit-margin-top="0"
     fit-margin-left="0"
     fit-margin-right="0"
     fit-margin-bottom="0"
     inkscape:window-width="3840"
     inkscape:window-height="2066"
     inkscape:window-x="-11"
     inkscape:window-y="-11"
     inkscape:window-maximized="1" />
  <metadata
     id="metadata1434">
    <rdf:RDF>
      <cc:Work
         rdf:about="">
        <dc:format>image/svg+xml</dc:format>
        <dc:type
           rdf:resource="http://purl.org/dc/dcmitype/StillImage" />
        <dc:title></dc:title>
      </cc:Work>
    </rdf:RDF>
  </metadata>
  <g
     inkscape:label="Calque 1"
     inkscape:groupmode="layer"
     id="layer1"
     transform="translate(-184.45357,-152.61429)">
    <path
       id="path1982"
       d="m 188.69138,154.61637 -0.38364,-0.38338 v -0.93954 c 0,-0.14552 -0.11906,-0.26458 -0.26459,-0.26458 h -0.26458 c -0.14552,0 -0.26458,0.11906 -0.26458,0.26458 v 0.14632 l -0.52917,-0.52864 c -0.0722,-0.0683 -0.13838,-0.14684 -0.26458,-0.14684 -0.12621,0 -0.19235,0.0786 -0.26459,0.14684 l -1.70656,1.70524 c -0.0825,0.086 -0.14552,0.14869 -0.14552,0.26458 0,0.14896 0.1143,0.26459 0.26458,0.26459 h 0.26459 v 1.5875 c 0,0.14552 0.11906,0.26458 0.26458,0.26458 h 0.79375 v -1.32292 c 0,-0.14552 0.11906,-0.26458 0.26458,-0.26458 h 0.52917 c 0.14552,0 0.26458,0.11906 0.26458,0.26458 v 1.32292 h 0.79375 c 0.14553,0 0.26459,-0.11906 0.26459,-0.26458 v -1.5875 h 0.26458 c 0.15028,0 0.26458,-0.11563 0.26458,-0.26459 0,-0.11589 -0.063,-0.17859 -0.14552,-0.26458 z"
       inkscape:connector-curvature="0"
       style="fill:none;stroke:#404040;stroke-width:0.30000001;stroke-miterlimit:4;stroke-dasharray:none;stroke-opacity:1" />
  </g>
</svg>
