<?xml version="1.0" encoding="UTF-8" standalone="no"?>
<!-- Created with Inkscape (http://www.inkscape.org/) -->

<svg
   width="18.708935mm"
   height="18.708929mm"
   viewBox="0 0 18.708935 18.708929"
   version="1.1"
   id="svg5"
   sodipodi:docname="certif_gold.svg"
   inkscape:version="1.2.2 (732a01da63, 2022-12-09)"
   xmlns:inkscape="http://www.inkscape.org/namespaces/inkscape"
   xmlns:sodipodi="http://sodipodi.sourceforge.net/DTD/sodipodi-0.dtd"
   xmlns="http://www.w3.org/2000/svg"
   xmlns:svg="http://www.w3.org/2000/svg">
  <sodipodi:namedview
     id="namedview7"
     pagecolor="#ffffff"
     bordercolor="#000000"
     borderopacity="0.25"
     inkscape:showpageshadow="2"
     inkscape:pageopacity="0.0"
     inkscape:pagecheckerboard="0"
     inkscape:deskcolor="#d1d1d1"
     inkscape:document-units="mm"
     showgrid="true"
     inkscape:zoom="14.638496"
     inkscape:cx="36.889035"
     inkscape:cy="43.652025"
     inkscape:window-width="3840"
     inkscape:window-height="2066"
     inkscape:window-x="-11"
     inkscape:window-y="-11"
     inkscape:window-maximized="1"
     inkscape:current-layer="layer1">
    <inkscape:grid
       type="xygrid"
       id="grid686"
       originx="-75.312197"
       originy="-103.09345" />
  </sodipodi:namedview>
  <defs
     id="defs2" />
  <g
     inkscape:label="Calque 1"
     inkscape:groupmode="layer"
     id="layer1"
     transform="translate(-75.312199,-103.09345)">
    <path
       id="rect1732"
       style="fill:#e58e26;stroke:none;stroke-width:1.516;stroke-linejoin:round;stroke-miterlimit:8.2;fill-opacity:1"
       d="m 84.666667,103.09345 -1.551844,1.55184 -2.0283,-0.83974 -0.839742,2.02778 h -2.194698 v 2.1947 l -2.027783,0.83974 0.839742,2.0283 -1.551843,1.55185 1.551843,1.55184 -0.839742,2.0283 2.027783,0.83974 v 2.1947 h 2.194698 l 0.839742,2.02778 2.0283,-0.83974 1.551844,1.55184 1.551843,-1.55184 2.0283,0.83974 0.839742,-2.02778 h 2.194698 v -2.1947 l 2.027783,-0.83974 -0.839742,-2.0283 1.551843,-1.55184 -1.551843,-1.55185 0.839742,-2.0283 -2.027783,-0.83974 v -2.1947 h -2.194698 l -0.839742,-2.02778 -2.0283,0.83974 z m 0,4.0628 a 5.2916665,5.2916665 0 0 1 3.741373,1.55029 l -1.308964,1.30897 a 3.4395833,3.4395833 0 0 0 -2.432409,-1.00718 3.4395833,3.4395833 0 0 0 -3.439584,3.43959 3.4395833,3.4395833 0 0 0 3.439584,3.43958 3.4395833,3.4395833 0 0 0 2.429826,-1.00976 l 1.30948,1.30948 a 5.2916665,5.2916665 0 0 1 -3.739306,1.55236 5.2916665,5.2916665 0 0 1 -5.291667,-5.29166 5.2916665,5.2916665 0 0 1 5.291667,-5.29167 z" />
  </g>
</svg>
