<?xml version="1.0" encoding="UTF-8" standalone="no"?>
<!-- Created with Inkscape (http://www.inkscape.org/) -->

<svg
   xmlns:dc="http://purl.org/dc/elements/1.1/"
   xmlns:cc="http://creativecommons.org/ns#"
   xmlns:rdf="http://www.w3.org/1999/02/22-rdf-syntax-ns#"
   xmlns:svg="http://www.w3.org/2000/svg"
   xmlns="http://www.w3.org/2000/svg"
   xmlns:sodipodi="http://sodipodi.sourceforge.net/DTD/sodipodi-0.dtd"
   xmlns:inkscape="http://www.inkscape.org/namespaces/inkscape"
   width="91.245178mm"
   height="22.327459mm"
   viewBox="0 0 91.245178 22.327459"
   version="1.1"
   id="svg8"
   inkscape:version="0.92.3 (2405546, 2018-03-11)"
   sodipodi:docname="logo-long.svg">
  <defs
     id="defs2" />
  <sodipodi:namedview
     id="base"
     pagecolor="#ffffff"
     bordercolor="#666666"
     borderopacity="1.0"
     inkscape:pageopacity="0.0"
     inkscape:pageshadow="2"
     inkscape:zoom="1.4142136"
     inkscape:cx="102.57861"
     inkscape:cy="-125.5747"
     inkscape:document-units="mm"
     inkscape:current-layer="layer1"
     showgrid="false"
     inkscape:window-width="3840"
     inkscape:window-height="2066"
     inkscape:window-x="-11"
     inkscape:window-y="-11"
     inkscape:window-maximized="1"
     fit-margin-top="0"
     fit-margin-left="0"
     fit-margin-right="0"
     fit-margin-bottom="0">
    <inkscape:grid
       type="xygrid"
       id="grid4518"
       originx="-71.358776"
       originy="-209.82343" />
  </sodipodi:namedview>
  <metadata
     id="metadata5">
    <rdf:RDF>
      <cc:Work
         rdf:about="">
        <dc:format>image/svg+xml</dc:format>
        <dc:type
           rdf:resource="http://purl.org/dc/dcmitype/StillImage" />
        <dc:title></dc:title>
      </cc:Work>
    </rdf:RDF>
  </metadata>
  <g
     inkscape:label="Calque 1"
     inkscape:groupmode="layer"
     id="layer1"
     transform="translate(-71.358779,-64.849113)">
    <path
       style="fill:none;stroke:#1b1464;stroke-width:3.96442175;stroke-linecap:butt;stroke-linejoin:miter;stroke-miterlimit:4;stroke-dasharray:none;stroke-opacity:1"
       d="m 72.760416,71.954839 2.87375,-2.87375 h 11.49501 v 14.36877 h -11.49501 l -2.87375,-2.87376"
       id="path4524"
       inkscape:connector-curvature="0" />
    <rect
       style="opacity:1;fill:#1b1464;fill-opacity:1;stroke:#1b1464;stroke-width:3.96442175;stroke-linecap:round;stroke-linejoin:bevel;stroke-miterlimit:4;stroke-dasharray:none;stroke-opacity:1;paint-order:stroke fill markers"
       id="rect4526"
       width="2.8737531"
       height="2.8737531"
       x="78.507904"
       y="74.82856" />
    <g
       aria-label="OMMP"
       style="font-style:normal;font-variant:normal;font-weight:normal;font-stretch:normal;font-size:8.3668375px;line-height:1.25;font-family:Roundo;-inkscape-font-specification:Roundo;letter-spacing:0px;word-spacing:0px;fill:#000000;fill-opacity:1;stroke:none;stroke-width:0.20917094"
       id="text4530">
      <path
         d="m 94.749759,76.218005 q 0,-3.309774 2.494317,-5.672166 2.494317,-2.362414 5.995954,-2.362414 3.41769,0 5.88802,2.386398 2.47034,2.374393 2.47034,5.648182 0,3.465654 -2.44635,5.864031 -2.43436,2.386398 -5.98396,2.386398 -3.501632,0 -5.959978,-2.410382 -2.458343,-2.410378 -2.458343,-5.840047 z m 14.630131,0.09556 q 0,-2.53028 -1.82278,-4.257115 -1.82276,-1.73884 -4.48495,-1.73884 -2.5303,0 -4.341089,1.76282 -1.798784,1.76281 -1.798784,4.233135 0,2.506308 1.846749,4.245147 1.858754,1.726836 4.544934,1.726836 2.47034,0 4.25713,-1.762821 1.79879,-1.774789 1.79879,-4.209162 z"
         style="font-style:normal;font-variant:normal;font-weight:normal;font-stretch:normal;font-size:2.51005125px;font-family:'Tw Cen MT';-inkscape-font-specification:'Tw Cen MT';fill:#1b1464;fill-opacity:1;stroke:#1b1464;stroke-width:2.0466187;stroke-opacity:1"
         id="path4532"
         inkscape:connector-curvature="0" />
      <path
         d="m 126.93603,68.039521 4.17319,15.913265 h -2.03862 l -2.53031,-9.725444 -4.35305,10.313047 -4.36506,-10.384992 -2.55427,9.797389 h -2.03862 l 4.17319,-15.913265 4.78476,11.392304 z"
         style="font-style:normal;font-variant:normal;font-weight:normal;font-stretch:normal;font-size:2.51005125px;font-family:'Tw Cen MT';-inkscape-font-specification:'Tw Cen MT';fill:#1b1464;fill-opacity:1;stroke:#1b1464;stroke-width:2.0466187;stroke-opacity:1"
         id="path4534"
         inkscape:connector-curvature="0" />
      <path
         d="m 145.88326,68.039521 4.17317,15.913265 h -2.03862 l -2.53028,-9.725444 -4.35307,10.313047 -4.36507,-10.384992 -2.55426,9.797389 h -2.03863 l 4.17318,-15.913265 4.78478,11.392304 z"
         style="font-style:normal;font-variant:normal;font-weight:normal;font-stretch:normal;font-size:2.51005125px;font-family:'Tw Cen MT';-inkscape-font-specification:'Tw Cen MT';fill:#1b1464;fill-opacity:1;stroke:#1b1464;stroke-width:2.0466187;stroke-opacity:1"
         id="path4536"
         inkscape:connector-curvature="0" />
      <path
         d="m 152.71863,68.675089 h 3.06993 q 2.60224,0 4.19717,1.223181 1.59492,1.223171 1.59492,3.17786 0,1.966668 -1.69086,3.297769 -1.67885,1.331101 -5.10854,1.295127 v 6.28376 h -2.06262 z m 2.06262,1.822764 v 5.348398 q 2.35041,-0.02494 3.47764,-0.659616 1.13924,-0.647451 1.13924,-2.062608 0,-1.067352 -0.86338,-1.846756 -0.85143,-0.779525 -3.75347,-0.779525 z"
         style="font-style:normal;font-variant:normal;font-weight:normal;font-stretch:normal;font-size:2.51005125px;font-family:'Tw Cen MT';-inkscape-font-specification:'Tw Cen MT';fill:#1b1464;fill-opacity:1;stroke:#1b1464;stroke-width:2.0466187;stroke-opacity:1"
         id="path4538"
         inkscape:connector-curvature="0" />
    </g>
  </g>
</svg>
